# xmcd CD database file
#
# Track frame offsets:
#	150
#	29781
#	48764
#	70335
#	95741
#	118228
#	142761
#	165407
#	182484
#
# Disc length: 2670 seconds
#
# Revision: 0
# Processed by: cddbd v1.5.2PL0 Copyright (c) Steve Scherf et al.
# Submitted via: CDex 1.70beta2
#
DISCID=780a6c09
DTITLE=The Bahama Soul Club - Rhythm Is What Makes Jazz Jazz
DYEAR=2008
DGENRE=Jazz
TTITLE0=The Bahama Soul Club - But Rich Rhythms
TTITLE1=The Bahama Soul Club - Kind Of Cool
TTITLE2=The Bahama Soul Club - Sugar Cane
TTITLE3=The Bahama Soul Club - Nassau Jam
TTITLE4=The Bahama Soul Club - Dejame Marchar
TTITLE5=The Bahama Soul Club - A Bout De Souffle
TTITLE6=The Bahama Soul Club - Boca Chica
TTITLE7=The Bahama Soul Club - Muchacho
TTITLE8=The Bahama Soul Club - Late Night Bossa
EXTD=YEAR: 2008
EXTT0=
EXTT1=
EXTT2=
EXTT3=
EXTT4=
EXTT5=
EXTT6=
EXTT7=
EXTT8=
PLAYORDER=
